<svg width="14" height="14" viewBox="0 0 14 14" fill="none" xmlns="http://www.w3.org/2000/svg">
<g id="Icon">
<path fill-rule="evenodd" clip-rule="evenodd" d="M6.28206 12.9754C6.28206 12.5789 6.6035 12.2574 7.00001 12.2574H13.2821C13.6786 12.2574 14 12.5789 14 12.9754C14 13.3719 13.6786 13.6933 13.2821 13.6933H7.00001C6.6035 13.6933 6.28206 13.3719 6.28206 12.9754Z" fill="black"/>
<path fill-rule="evenodd" clip-rule="evenodd" d="M11.188 1.74254C10.9857 1.74254 10.7917 1.8229 10.6487 1.96594L2.06425 10.5504L1.70469 11.9886L3.14293 11.6291L11.7274 3.04462C11.7982 2.97379 11.8544 2.88971 11.8927 2.79717C11.9311 2.70463 11.9508 2.60545 11.9508 2.50528C11.9508 2.40512 11.9311 2.30593 11.8927 2.21339C11.8544 2.12085 11.7982 2.03677 11.7274 1.96594C11.6566 1.89511 11.5725 1.83893 11.4799 1.8006C11.3874 1.76227 11.2882 1.74254 11.188 1.74254ZM9.63336 0.950607C10.0457 0.538282 10.6049 0.306641 11.188 0.306641C11.4768 0.306641 11.7627 0.36351 12.0294 0.474002C12.2962 0.584494 12.5385 0.746445 12.7427 0.950607C12.9469 1.15477 13.1088 1.39715 13.2193 1.6639C13.3298 1.93065 13.3867 2.21655 13.3867 2.50528C13.3867 2.79401 13.3298 3.07991 13.2193 3.34666C13.1088 3.61342 12.9469 3.85579 12.7427 4.05995L4.01765 12.785C3.92564 12.877 3.81035 12.9423 3.68411 12.9739L0.892091 13.6719C0.647432 13.733 0.388621 13.6613 0.210297 13.483C0.0319732 13.3047 -0.0397133 13.0459 0.0214514 12.8012L0.719456 10.0092C0.751016 9.88297 0.816291 9.76768 0.908302 9.67567L9.63336 0.950607Z" fill="black"/>
</g>
</svg>
