<svg width="16" height="16" viewBox="0 0 16 16" fill="none" xmlns="http://www.w3.org/2000/svg">
<g id="Icon">
<path fill-rule="evenodd" clip-rule="evenodd" d="M7.27712 14.4463C7.27712 14.0471 7.60077 13.7234 8.00001 13.7234H14.7771C15.1764 13.7234 15.5 14.0471 15.5 14.4463C15.5 14.8455 15.1764 15.1692 14.7771 15.1692H8.00001C7.60077 15.1692 7.27712 14.8455 7.27712 14.4463Z" fill="black"/>
<path fill-rule="evenodd" clip-rule="evenodd" d="M12.5181 2.27662C12.2861 2.27662 12.0637 2.36876 11.8997 2.53275L2.62866 11.8038L2.21642 13.4528L3.86537 13.0405L13.1364 3.76947C13.2176 3.68826 13.282 3.59186 13.326 3.48576C13.3699 3.37966 13.3926 3.26595 13.3926 3.15111C13.3926 3.03627 13.3699 2.92256 13.326 2.81646C13.282 2.71036 13.2176 2.61396 13.1364 2.53275C13.0552 2.45155 12.9588 2.38714 12.8527 2.34319C12.7466 2.29924 12.6329 2.27662 12.5181 2.27662ZM10.8774 1.51043C11.3125 1.0753 11.9027 0.830841 12.5181 0.830841C12.8228 0.830841 13.1245 0.890857 13.406 1.00746C13.6875 1.12407 13.9433 1.29498 14.1588 1.51043C14.3742 1.72589 14.5451 1.98167 14.6617 2.26318C14.7783 2.54469 14.8383 2.84641 14.8383 3.15111C14.8383 3.45581 14.7783 3.75753 14.6617 4.03904C14.5451 4.32055 14.3742 4.57633 14.1588 4.79179L4.74611 14.2044C4.65347 14.2971 4.53739 14.3628 4.41028 14.3946L1.39823 15.1476C1.15189 15.2092 0.891297 15.137 0.711745 14.9574C0.532193 14.7779 0.460013 14.5173 0.521599 14.271L1.27461 11.2589C1.30639 11.1318 1.37211 11.0157 1.46476 10.9231L10.8774 1.51043Z" fill="black"/>
</g>
</svg>
