<svg width="38" height="38" viewBox="0 0 38 38" fill="none" xmlns="http://www.w3.org/2000/svg">
<g id="material-symbols:check-circle">
<path id="Vector" d="M16.7833 26.2834L27.9458 15.1209L25.7292 12.9042L16.7833 21.85L12.2708 17.3375L10.0542 19.5542L16.7833 26.2834ZM19 34.8334C16.8097 34.8334 14.7514 34.4175 12.825 33.5857C10.8986 32.7539 9.22291 31.6261 7.79791 30.2021C6.37291 28.7771 5.24505 27.1014 4.41432 25.175C3.5836 23.2486 3.16771 21.1903 3.16666 19C3.16666 16.8097 3.58255 14.7514 4.41432 12.825C5.2461 10.8986 6.37396 9.22294 7.79791 7.79794C9.22291 6.37294 10.8986 5.24508 12.825 4.41435C14.7514 3.58363 16.8097 3.16774 19 3.16669C21.1903 3.16669 23.2486 3.58258 25.175 4.41435C27.1014 5.24613 28.7771 6.37399 30.2021 7.79794C31.6271 9.22294 32.7555 10.8986 33.5872 12.825C34.419 14.7514 34.8344 16.8097 34.8333 19C34.8333 21.1903 34.4174 23.2486 33.5857 25.175C32.7539 27.1014 31.626 28.7771 30.2021 30.2021C28.7771 31.6271 27.1014 32.7555 25.175 33.5873C23.2486 34.419 21.1903 34.8344 19 34.8334Z" fill="white"/>
</g>
</svg>
