<svg width="18" height="18" viewBox="0 0 18 18" fill="none" xmlns="http://www.w3.org/2000/svg">
<path id="Text" d="M8.99589 17.5C7.83349 17.5 6.73964 17.2778 5.71432 16.8335C4.689 16.3946 3.78431 15.783 3.00024 14.9985C2.22166 14.2141 1.6103 13.309 1.16618 12.2832C0.722061 11.2573 0.5 10.163 0.5 9C0.5 7.83704 0.722061 6.74266 1.16618 5.71684C1.6103 4.69103 2.22166 3.78864 3.00024 3.00968C3.78431 2.22523 4.68626 1.61084 5.7061 1.16651C6.73141 0.722168 7.82527 0.5 8.98766 0.5C10.1555 0.5 11.2521 0.722168 12.2775 1.16651C13.3028 1.61084 14.2075 2.22523 14.9915 3.00968C15.7756 3.78864 16.3897 4.69103 16.8338 5.71684C17.2779 6.74266 17.5 7.83704 17.5 9C17.5 10.163 17.2779 11.2573 16.8338 12.2832C16.3897 13.309 15.7756 14.2141 14.9915 14.9985C14.2075 15.783 13.3028 16.3946 12.2775 16.8335C11.2521 17.2778 10.1583 17.5 8.99589 17.5ZM8.99589 15.8214C9.94444 15.8214 10.8299 15.6459 11.6524 15.2948C12.4748 14.9437 13.1986 14.4555 13.8237 13.8301C14.4487 13.2047 14.9367 12.4806 15.2876 11.6578C15.6385 10.8349 15.814 9.94902 15.814 9C15.814 8.05647 15.6385 7.17328 15.2876 6.35044C14.9367 5.5221 14.4487 4.79526 13.8237 4.16989C13.1986 3.54453 12.4721 3.05631 11.6442 2.70523C10.8217 2.35415 9.93622 2.17861 8.98766 2.17861C8.04459 2.17861 7.15909 2.35415 6.33116 2.70523C5.50871 3.05631 4.7877 3.54453 4.16812 4.16989C3.54854 4.79526 3.0633 5.5221 2.71239 6.35044C2.36147 7.17328 2.18602 8.05647 2.18602 9C2.18602 9.94902 2.36147 10.8349 2.71239 11.6578C3.0633 12.4806 3.54854 13.2047 4.16812 13.8301C4.79318 14.4555 5.51693 14.9437 6.33938 15.2948C7.16731 15.6459 8.05281 15.8214 8.99589 15.8214ZM6.76705 5.55228C7.16183 5.55228 7.52645 5.62907 7.86091 5.78267C8.20085 5.93627 8.4613 6.14472 8.64223 6.40803C8.69158 6.48483 8.71626 6.55889 8.71626 6.6302V12.2091C8.71626 12.3188 8.66417 12.3737 8.55999 12.3737C8.51613 12.3737 8.47226 12.3517 8.4284 12.3078C8.20908 12.1268 7.97057 11.9924 7.71287 11.9046C7.46065 11.8169 7.20021 11.773 6.93154 11.773C6.29552 11.773 5.74448 11.965 5.27842 12.349C5.22908 12.3874 5.17973 12.4176 5.13038 12.4395C5.08104 12.456 5.02895 12.4642 4.97412 12.4642C4.74383 12.4642 4.62869 12.3545 4.62869 12.135V6.89351C4.62869 6.81123 4.63143 6.75089 4.63691 6.71249C4.64788 6.67409 4.66433 6.63295 4.68626 6.58906C4.87268 6.26541 5.16054 6.01307 5.54983 5.83204C5.94461 5.64553 6.35035 5.55228 6.76705 5.55228ZM11.2329 5.55228C11.6497 5.55228 12.0527 5.64553 12.4419 5.83204C12.8312 6.01307 13.1191 6.26541 13.3055 6.58906C13.3329 6.63295 13.3494 6.67409 13.3549 6.71249C13.3658 6.75089 13.3713 6.81123 13.3713 6.89351V12.135C13.3713 12.3545 13.2589 12.4642 13.0341 12.4642C12.9738 12.4642 12.919 12.456 12.8696 12.4395C12.8203 12.4176 12.7682 12.3874 12.7134 12.349C12.2528 11.965 11.7045 11.773 11.0685 11.773C10.7998 11.773 10.5366 11.8169 10.2789 11.9046C10.0267 11.9924 9.79092 12.1268 9.5716 12.3078C9.52774 12.3517 9.48387 12.3737 9.44001 12.3737C9.33035 12.3737 9.27552 12.3188 9.27552 12.2091V6.6302C9.27552 6.55889 9.30019 6.48483 9.34954 6.40803C9.54144 6.14472 9.80189 5.93627 10.1309 5.78267C10.4653 5.62907 10.8327 5.55228 11.2329 5.55228Z" fill="black"/>
</svg>
