<svg width="20" height="15" viewBox="0 0 20 15" fill="none" xmlns="http://www.w3.org/2000/svg">
<path id="Text" d="M2.67864 14.3405C1.8021 14.3405 1.13516 14.1146 0.677828 13.6627C0.225943 13.2108 0 12.5521 0 11.6864V2.65414C0 1.78304 0.217776 1.12427 0.653328 0.677828C1.08888 0.225943 1.69593 0 2.47448 0H17.3132C18.1952 0 18.8621 0.225943 19.314 0.677828C19.7713 1.12427 20 1.78304 20 2.65414V11.6864C20 12.5521 19.7822 13.2108 19.3467 13.6627C18.9111 14.1146 18.3041 14.3405 17.5255 14.3405H2.67864ZM2.67864 12.8297H17.3132C17.6889 12.8297 17.9801 12.729 18.187 12.5276C18.3939 12.3261 18.4973 12.0321 18.4973 11.6456V2.69498C18.4973 2.30843 18.3939 2.01443 18.187 1.81298C17.9801 1.61154 17.6889 1.51082 17.3132 1.51082H2.67864C2.30298 1.51082 2.01171 1.61154 1.80482 1.81298C1.60338 2.01443 1.50265 2.3057 1.50265 2.68681V11.6374C1.50265 12.0294 1.60338 12.3261 1.80482 12.5276C2.01171 12.729 2.30298 12.8297 2.67864 12.8297ZM9.99592 9.39976C9.71825 9.39976 9.44875 9.34803 9.18742 9.24459C8.93154 9.14115 8.67837 8.97509 8.42793 8.74643L0.79216 1.87832L1.77215 0.890159L9.26092 7.64394C9.49503 7.85627 9.74003 7.96243 9.99592 7.96243C10.2518 7.96243 10.4968 7.85627 10.7309 7.64394L18.2197 0.890159L19.1997 1.87832L11.5639 8.74643C11.3135 8.97509 11.0576 9.14115 10.7962 9.24459C10.5404 9.34803 10.2736 9.39976 9.99592 9.39976ZM1.91098 13.1646L0.930992 12.1764L6.70478 6.40261L7.68477 7.37444L1.91098 13.1646ZM18.0972 13.1727L12.3071 7.37444L13.2952 6.40261L19.0772 12.1846L18.0972 13.1727Z" fill="black"/>
</svg>
