<svg width="15" height="16" viewBox="0 0 15 16" fill="none" xmlns="http://www.w3.org/2000/svg">
<path id="Text" d="M1.54438 15.5124C1.06391 15.5124 0.686391 15.4037 0.411834 15.1864C0.137278 14.969 0 14.6716 0 14.2941C0 13.7393 0.165878 13.1587 0.497633 12.5524C0.835108 11.9461 1.31844 11.3769 1.94763 10.845C2.58254 10.313 3.34615 9.88116 4.23846 9.54941C5.13077 9.21765 6.13175 9.05178 7.24142 9.05178C8.3568 9.05178 9.36065 9.21765 10.253 9.54941C11.1453 9.88116 11.906 10.313 12.5352 10.845C13.1701 11.3769 13.6563 11.9461 13.9938 12.5524C14.3313 13.1587 14.5 13.7393 14.5 14.2941C14.5 14.6716 14.3627 14.969 14.0882 15.1864C13.8136 15.4037 13.4361 15.5124 12.9556 15.5124H1.54438ZM7.25 7.52456C6.62653 7.52456 6.05168 7.35582 5.52544 7.01834C5.00493 6.68087 4.58452 6.22613 4.2642 5.65414C3.94961 5.08215 3.79231 4.44152 3.79231 3.73225C3.79231 3.03442 3.94961 2.40523 4.2642 1.84467C4.58452 1.2784 5.00779 0.829389 5.53402 0.497633C6.06026 0.165878 6.63225 0 7.25 0C7.87347 0 8.44832 0.163018 8.97456 0.489053C9.50079 0.815089 9.9212 1.26124 10.2358 1.82751C10.5561 2.38807 10.7163 3.01726 10.7163 3.71509C10.7163 4.43008 10.5561 5.07643 10.2358 5.65414C9.9212 6.22613 9.50079 6.68087 8.97456 7.01834C8.44832 7.35582 7.87347 7.52456 7.25 7.52456Z" fill="black"/>
</svg>
