<svg width="16" height="18" viewBox="0 0 16 18" fill="none" xmlns="http://www.w3.org/2000/svg">
<path id="Text" d="M0 13.0902C0 12.7989 0.0769363 12.5214 0.230809 12.2576C0.384681 11.9883 0.57977 11.73 0.816074 11.4827C1.05787 11.2354 1.30242 10.9909 1.54972 10.7491C1.74206 10.5623 1.89043 10.3177 1.99485 10.0155C2.10476 9.71321 2.18719 9.38073 2.24214 9.01803C2.2971 8.65533 2.34106 8.28439 2.37403 7.9052C2.40701 6.86656 2.53615 5.94608 2.76146 5.14374C2.99227 4.3414 3.33299 3.66821 3.78362 3.12416C4.23974 2.58011 4.82775 2.17895 5.54766 1.92066C5.70153 1.37661 5.99553 0.920488 6.42968 0.552293C6.86382 0.184098 7.38588 0 7.99588 0C8.61137 0 9.13618 0.184098 9.57032 0.552293C10.0045 0.920488 10.2985 1.37661 10.4523 1.92066C11.1722 2.17895 11.7575 2.58011 12.2081 3.12416C12.6643 3.66821 13.005 4.3414 13.2303 5.14374C13.4611 5.94608 13.593 6.86656 13.626 7.9052C13.6589 8.28439 13.7029 8.65533 13.7579 9.01803C13.8128 9.38073 13.8925 9.71321 13.9969 10.0155C14.1068 10.3177 14.2579 10.5623 14.4503 10.7491C14.6976 10.9909 14.9394 11.2354 15.1757 11.4827C15.4175 11.73 15.6153 11.9883 15.7692 12.2576C15.9231 12.5214 16 12.7989 16 13.0902C16 13.4419 15.8764 13.7249 15.6291 13.9392C15.3873 14.148 15.052 14.2524 14.6234 14.2524H11.2272C11.2052 14.7855 11.0541 15.2801 10.7738 15.7362C10.4991 16.1978 10.1226 16.5688 9.64451 16.849C9.1719 17.1348 8.62236 17.2777 7.99588 17.2777C7.37489 17.2777 6.82535 17.1348 6.34724 16.849C5.87464 16.5688 5.4982 16.1978 5.21793 15.7362C4.94316 15.2801 4.79478 14.7855 4.7728 14.2524H1.37661C0.947965 14.2524 0.609995 14.148 0.3627 13.9392C0.1209 13.7249 0 13.4419 0 13.0902ZM1.97012 12.7439H14.0052V12.645C13.9337 12.5736 13.8403 12.4774 13.7249 12.3565C13.6095 12.2356 13.4803 12.1037 13.3375 11.9608C13.2001 11.8125 13.0627 11.6613 12.9253 11.5075C12.7824 11.3481 12.6588 11.1558 12.5544 10.9304C12.4499 10.6996 12.362 10.4414 12.2906 10.1556C12.2191 9.86433 12.1587 9.54834 12.1092 9.20763C12.0653 8.86691 12.0323 8.49871 12.0103 8.10304C11.9773 6.99296 11.8509 6.10819 11.6311 5.44874C11.4113 4.78379 11.12 4.2892 10.7573 3.96497C10.4001 3.63524 9.99897 3.40993 9.55384 3.28903C9.46042 3.26704 9.38348 3.22858 9.32303 3.17362C9.26807 3.11317 9.23785 3.02799 9.23235 2.91808C9.21037 2.50043 9.08947 2.16246 8.86965 1.90417C8.65533 1.64589 8.36407 1.51674 7.99588 1.51674C7.63867 1.51674 7.35016 1.64589 7.13035 1.90417C6.91053 2.16246 6.78963 2.50043 6.76765 2.91808C6.76215 3.02799 6.72918 3.11317 6.66873 3.17362C6.61377 3.22858 6.53684 3.26704 6.43792 3.28903C5.99279 3.40993 5.59162 3.63524 5.23442 3.96497C4.87721 4.2892 4.5887 4.78379 4.36888 5.44874C4.14906 6.10819 4.02267 6.99296 3.9897 8.10304C3.96771 8.49871 3.93199 8.86691 3.88253 9.20763C3.83857 9.54834 3.77812 9.86433 3.70118 10.1556C3.62974 10.4414 3.54182 10.6996 3.4374 10.9304C3.33299 11.1558 3.20934 11.3481 3.06646 11.5075C2.93457 11.6613 2.79718 11.8125 2.6543 11.9608C2.51142 12.1037 2.37953 12.2356 2.25863 12.3565C2.13773 12.4774 2.04156 12.5736 1.97012 12.645V12.7439ZM6.33076 14.2524C6.35823 14.7745 6.52585 15.1894 6.83359 15.4972C7.14683 15.8049 7.53426 15.9588 7.99588 15.9588C8.46849 15.9588 8.85592 15.8049 9.15817 15.4972C9.46591 15.1894 9.63627 14.7745 9.66924 14.2524H6.33076Z" fill="black"/>
</svg>
