<svg width="18" height="16" viewBox="0 0 18 16" fill="none" xmlns="http://www.w3.org/2000/svg">
<path id="Text" d="M0 13.6296V2.79929C0 2.71954 0.00531679 2.6451 0.0159504 2.57599C0.0319008 2.50687 0.0638015 2.43509 0.111653 2.36066C0.361542 1.92468 0.723084 1.52858 1.19628 1.17235C1.67479 0.816128 2.23305 0.531679 2.87107 0.319008C3.5144 0.106336 4.20824 0 4.95259 0C5.79796 0 6.57687 0.14887 7.28932 0.446611C8.00709 0.744351 8.57864 1.13248 9.00399 1.61099C9.4187 1.13248 9.98228 0.744351 10.6947 0.446611C11.4125 0.14887 12.1994 0 13.0554 0C13.7891 0 14.475 0.106336 15.113 0.319008C15.7563 0.531679 16.3172 0.816128 16.7957 1.17235C17.2743 1.52858 17.6385 1.92468 17.8883 2.36066C17.9309 2.43509 17.9601 2.50687 17.9761 2.57599C17.992 2.6451 18 2.71954 18 2.79929V13.6296C18 13.9911 17.8963 14.257 17.689 14.4271C17.4816 14.6026 17.2344 14.6903 16.9473 14.6903C16.7984 14.6903 16.6549 14.6557 16.5166 14.5866C16.3784 14.5175 16.2215 14.4271 16.0461 14.3155C15.6101 14.0284 15.1396 13.8024 14.6345 13.6376C14.1294 13.4728 13.6136 13.393 13.0873 13.3983C12.5237 13.4036 11.9761 13.5073 11.4444 13.7093C10.918 13.9167 10.4395 14.2277 10.0089 14.6424C9.82277 14.8179 9.64998 14.9402 9.49047 15.0093C9.33097 15.0784 9.16881 15.113 9.00399 15.113C8.83385 15.113 8.66903 15.0784 8.50953 15.0093C8.35002 14.9402 8.17723 14.8179 7.99114 14.6424C7.55516 14.2277 7.07133 13.9167 6.53965 13.7093C6.01329 13.5073 5.47098 13.4036 4.91272 13.3983C4.38635 13.393 3.87062 13.4728 3.36553 13.6376C2.86043 13.8024 2.38724 14.0284 1.94595 14.3155C1.77581 14.4271 1.62162 14.5175 1.48338 14.5866C1.34515 14.6557 1.2016 14.6903 1.05272 14.6903C0.765618 14.6903 0.518387 14.6026 0.311032 14.4271C0.103677 14.257 0 13.9911 0 13.6296ZM1.57111 12.7444C1.98582 12.4626 2.48826 12.2419 3.07842 12.0824C3.66859 11.9176 4.29331 11.8352 4.95259 11.8352C5.3673 11.8352 5.77404 11.8804 6.1728 11.9708C6.57156 12.0558 6.94373 12.1755 7.28932 12.3296C7.63491 12.4838 7.94329 12.6619 8.21444 12.864V3.07842C7.94329 2.62118 7.50997 2.25698 6.91449 1.98582C6.32432 1.70935 5.67036 1.57111 4.95259 1.57111C4.4794 1.57111 4.02481 1.63226 3.58883 1.75454C3.15286 1.87683 2.75942 2.04696 2.40851 2.26495C2.0576 2.48294 1.77847 2.74081 1.57111 3.03855V12.7444ZM9.78556 12.864C10.0514 12.6619 10.3598 12.4838 10.7107 12.3296C11.0616 12.1755 11.4338 12.0558 11.8272 11.9708C12.226 11.8804 12.6354 11.8352 13.0554 11.8352C13.704 11.8352 14.3234 11.9176 14.9136 12.0824C15.5038 12.2419 16.0089 12.4626 16.4289 12.7444V3.03855C16.2215 2.74081 15.9397 2.48294 15.5835 2.26495C15.2326 2.04696 14.8392 1.87683 14.4032 1.75454C13.9725 1.63226 13.5233 1.57111 13.0554 1.57111C12.327 1.57111 11.6677 1.70935 11.0775 1.98582C10.4874 2.25698 10.0567 2.62118 9.78556 3.07842V12.864Z" fill="black"/>
</svg>
