<svg width="19" height="18" viewBox="0 0 19 18" fill="none" xmlns="http://www.w3.org/2000/svg">
<path id="Text" d="M3.54923 17.5174C3.35742 17.3749 3.2396 17.1831 3.19576 16.942C3.1574 16.7064 3.19302 16.4269 3.30262 16.1035L4.996 11.0809L0.68035 7.9819C0.40086 7.78461 0.206313 7.57911 0.0967093 7.36538C-0.0128946 7.14617 -0.0293351 6.92148 0.0473875 6.69131C0.12411 6.46663 0.269335 6.29948 0.483063 6.18988C0.69679 6.07479 0.97628 6.01999 1.32153 6.02547L6.60718 6.05835L8.21835 1.0111C8.32248 0.682284 8.45948 0.432935 8.62937 0.263049C8.80473 0.0876831 9.01024 0 9.24589 0C9.48702 0 9.69252 0.0876831 9.86241 0.263049C10.0378 0.432935 10.1775 0.682284 10.2816 1.0111L11.8928 6.05835L17.1785 6.02547C17.5237 6.01999 17.8032 6.07479 18.0169 6.18988C18.2307 6.29948 18.3759 6.46663 18.4526 6.69131C18.5293 6.92148 18.5129 7.14617 18.4033 7.36538C18.2937 7.57911 18.0991 7.78461 17.8197 7.9819L13.504 11.0809L15.1974 16.1035C15.307 16.4269 15.3399 16.7064 15.296 16.942C15.2577 17.1831 15.1426 17.3749 14.9508 17.5174C14.759 17.6709 14.5425 17.7257 14.3014 17.6818C14.0602 17.638 13.8027 17.5174 13.5287 17.3201L9.24589 14.1718L4.97134 17.3201C4.69733 17.5174 4.43976 17.638 4.19863 17.6818C3.9575 17.7257 3.74104 17.6709 3.54923 17.5174ZM4.996 15.5281C5.00696 15.5446 5.02888 15.5418 5.06176 15.5199L8.76911 12.6592C8.93352 12.5277 9.09244 12.462 9.24589 12.462C9.40482 12.462 9.56648 12.5277 9.73089 12.6592L13.4382 15.5199C13.4711 15.5418 13.493 15.5446 13.504 15.5281C13.5095 15.5172 13.5095 15.4952 13.504 15.4624L11.9421 11.0563C11.8983 10.9248 11.8736 10.8069 11.8682 10.7028C11.8682 10.5932 11.8956 10.4946 11.9504 10.4069C12.0106 10.3192 12.1011 10.2343 12.2216 10.1521L16.0852 7.51334C16.118 7.49142 16.1318 7.4695 16.1263 7.44758C16.1208 7.43114 16.0961 7.42292 16.0523 7.42292L11.3832 7.538C11.1694 7.54348 11.0023 7.50786 10.8817 7.43114C10.7612 7.34894 10.6707 7.20097 10.6105 6.98724L9.29521 2.50719C9.28425 2.46883 9.26781 2.44965 9.24589 2.44965C9.22945 2.44965 9.21575 2.46883 9.20479 2.50719L7.88954 6.98724C7.82926 7.20097 7.73884 7.34894 7.61827 7.43114C7.49771 7.50786 7.33056 7.54348 7.11684 7.538L2.44771 7.42292C2.40387 7.42292 2.37921 7.43114 2.37373 7.44758C2.36825 7.4695 2.38195 7.49142 2.41483 7.51334L6.27837 10.1521C6.39893 10.2343 6.48661 10.3192 6.54142 10.4069C6.6017 10.4946 6.6291 10.5932 6.62362 10.7028C6.62362 10.8069 6.6017 10.9248 6.55786 11.0563L4.996 15.4624C4.98504 15.4952 4.98504 15.5172 4.996 15.5281Z" fill="black"/>
</svg>
