<svg width="15" height="16" viewBox="0 0 15 16" fill="none" xmlns="http://www.w3.org/2000/svg">
<path id="Text" d="M2.10324 15.4073C0.701081 15.4073 0 14.9344 0 13.9886C0 13.4278 0.16771 12.8394 0.503129 12.2235C0.844046 11.6077 1.33068 11.0331 1.96303 10.4997C2.60087 9.96634 3.36519 9.5347 4.25597 9.20478C5.14676 8.86936 6.14752 8.70165 7.25825 8.70165C8.35798 8.70165 9.35324 8.86936 10.244 9.20478C11.1403 9.5347 11.9046 9.96634 12.537 10.4997C13.1693 11.0331 13.6532 11.6077 13.9886 12.2235C14.3295 12.8394 14.5 13.4278 14.5 13.9886C14.5 14.9344 13.7989 15.4073 12.3968 15.4073H2.10324ZM1.83931 13.9804H12.6689C12.7624 13.9804 12.8284 13.9639 12.8669 13.9309C12.9109 13.8979 12.9329 13.8429 12.9329 13.7659C12.9329 13.447 12.8092 13.0841 12.5617 12.6772C12.3143 12.2648 11.9459 11.8661 11.4565 11.4812C10.9726 11.0908 10.3787 10.7692 9.67491 10.5162C8.97108 10.2578 8.16553 10.1286 7.25825 10.1286C6.34547 10.1286 5.53441 10.2578 4.82509 10.5162C4.12126 10.7692 3.5274 11.0908 3.04352 11.4812C2.55963 11.8661 2.19122 12.2648 1.93828 12.6772C1.69084 13.0841 1.56712 13.447 1.56712 13.7659C1.56712 13.8429 1.58637 13.8979 1.62486 13.9309C1.66885 13.9639 1.74033 13.9804 1.83931 13.9804ZM7.25825 7.73663C6.59291 7.73663 5.98531 7.56068 5.43544 7.20876C4.89107 6.85684 4.45667 6.38671 4.13225 5.79835C3.80783 5.20449 3.64562 4.55015 3.64562 3.83532C3.64562 3.13149 3.80783 2.4909 4.13225 1.91354C4.45667 1.33068 4.89107 0.866041 5.43544 0.519625C5.98531 0.173208 6.59291 0 7.25825 0C7.92359 0 8.52844 0.170459 9.07281 0.511377C9.62268 0.852294 10.0571 1.31143 10.376 1.88879C10.7004 2.46615 10.8626 3.1095 10.8626 3.81883C10.8626 4.53915 10.7004 5.19625 10.376 5.7901C10.0516 6.38396 9.61718 6.85684 9.07281 7.20876C8.52844 7.56068 7.92359 7.73663 7.25825 7.73663ZM7.25825 6.30148C7.64316 6.30148 7.99507 6.19425 8.31399 5.97981C8.63292 5.75986 8.8886 5.46293 9.08106 5.08902C9.27351 4.70961 9.36974 4.28622 9.36974 3.81883C9.36974 3.36244 9.27351 2.95554 9.08106 2.59812C8.8886 2.23521 8.63292 1.94928 8.31399 1.74033C7.99507 1.53138 7.64316 1.42691 7.25825 1.42691C6.87334 1.42691 6.52143 1.53413 6.2025 1.74858C5.88358 1.95753 5.62789 2.24346 5.43544 2.60637C5.24298 2.96928 5.14676 3.37893 5.14676 3.83532C5.14676 4.29721 5.24298 4.71786 5.43544 5.09727C5.62789 5.47118 5.88358 5.76536 6.2025 5.97981C6.52692 6.19425 6.87884 6.30148 7.25825 6.30148Z" fill="black"/>
</svg>
