<svg width="14" height="18" viewBox="0 0 14 18" fill="none" xmlns="http://www.w3.org/2000/svg">
<path id="Text" d="M2.6352 17.8275C1.7704 17.8275 1.115 17.6018 0.668998 17.1503C0.222999 16.7044 0 16.0462 0 15.176V2.84848C0 1.96736 0.222999 1.30109 0.668998 0.849649C1.115 0.398212 1.77584 0.172493 2.65152 0.172493H11.3403C12.216 0.172493 12.8768 0.400931 13.3228 0.857808C13.7688 1.30925 13.9918 1.9728 13.9918 2.84848V11.9044C13.9918 12.3178 13.9211 12.6414 13.7797 12.8753C13.6383 13.1092 13.467 13.3159 13.2657 13.4953C12.9231 13.8217 12.711 14.1752 12.6294 14.5559C12.5532 14.9312 12.5859 15.2793 12.7273 15.6002C12.8687 15.9211 13.108 16.155 13.4452 16.3019C13.5975 16.3671 13.728 16.465 13.8368 16.5956C13.9456 16.7315 14 16.8893 14 17.0688C14 17.2809 13.9266 17.4604 13.7797 17.6072C13.6383 17.7541 13.4588 17.8275 13.2413 17.8275H2.6352ZM1.60723 12.5734C1.77584 12.4755 1.96348 12.4021 2.17016 12.3531C2.37685 12.3042 2.59984 12.2797 2.83916 12.2797H11.7564C12.1807 12.2797 12.3928 12.073 12.3928 11.6597V2.94639C12.3928 2.57109 12.2949 2.28283 12.0991 2.08158C11.9033 1.8749 11.6068 1.77156 11.2098 1.77156H2.78205C2.39044 1.77156 2.09674 1.8749 1.90093 2.08158C1.70513 2.28283 1.60723 2.57109 1.60723 2.94639V12.5734ZM2.83916 16.31H11.3974C11.1799 15.9402 11.0629 15.5322 11.0466 15.0862C11.0303 14.6457 11.12 14.2106 11.3159 13.7809C11.2397 13.7918 11.1527 13.7972 11.0548 13.7972H2.90443C2.47475 13.7972 2.13481 13.9141 1.88462 14.148C1.63986 14.3819 1.51748 14.681 1.51748 15.0455C1.51748 15.4316 1.62898 15.7389 1.85198 15.9674C2.07498 16.1958 2.40404 16.31 2.83916 16.31ZM2.56177 13.0385V1.37179H3.71212V13.0385H2.56177Z" fill="black"/>
</svg>
